PathFileType	4	(X/Y/Z)	paretic_pre_fa151403.trc
DataRate	CameraRate	NumFrames	NumMarkers	Units	OrigDataRate	OrigDataStartFrame	OrigNumFrames
58.68	58.68	16	11	cm	58.68	382	1017
Frame#	Time	NOSE			LEFT_SHOULDER			RIGHT_SHOULDER			LEFT_ELBOW			RIGHT_ELBOW			LEFT_WRIST			RIGHT_WRIST			LEFT_HIP			RIGHT_HIP			LEFT_INDEX			RIGHT_INDEX		
		X1	Y1	Z1	X2	Y2	Z2	X3	Y3	Z3	X4	Y4	Z4	X5	Y5	Z5	X6	Y6	Z6	X7	Y7	Z7	X8	Y8	Z8	X9	Y9	Z9	X10	Y10	Z10	X11	Y11	Z11
411	7.004573970037453	9.595944	-61.082519	-26.353387	10.513906	-50.193478	12.144160	-22.621814	-58.730725	-3.924208	17.158665	-21.957172	12.588329	-33.358903	-19.636145	-14.964918	33.992134	-6.391491	3.866955	-18.743687	-3.655417	-29.436334	9.996478	-2.194693	12.150856	-9.640471	1.602109	-11.699435	36.513643	-4.476943	-0.800806	-3.291649	-9.199008	-39.139967
412	7.021616729088639	9.651884	-61.201088	-25.990003	10.515352	-50.468342	12.486260	-22.426700	-58.909821	-3.909245	17.161608	-22.473406	13.820000	-33.293818	-19.893007	-14.971519	33.993521	-6.577192	6.363357	-18.640804	-3.829130	-29.311273	9.977608	-2.197735	12.176244	-9.619057	1.606180	-11.725819	36.515308	-4.553118	2.052916	-3.109749	-9.295893	-38.872025
413	7.0386594881398254	9.761329	-61.267582	-26.194934	10.516050	-50.676565	12.401860	-22.359755	-58.927563	-4.443957	17.165818	-22.731523	13.856576	-33.290934	-19.888663	-15.552204	33.981263	-6.873273	6.504930	-18.601497	-3.874701	-29.691371	9.962614	-2.212209	12.193678	-9.604106	1.622732	-11.744979	36.476031	-4.929755	2.225707	-3.045263	-9.409221	-39.161019
414	7.055702247191011	9.773344	-61.410765	-26.199298	10.493836	-50.903829	12.405896	-22.339175	-58.986157	-4.560082	17.146541	-23.087535	13.918557	-33.296117	-20.035729	-15.757802	33.939056	-7.004394	6.680952	-18.616280	-4.054890	-29.810498	9.950853	-2.220125	12.208450	-9.592631	1.630899	-11.760766	36.427636	-4.948792	2.420113	-3.050599	-9.545626	-39.242375
415	7.072745006242197	9.795050	-61.417293	-26.203573	10.478601	-50.949520	12.381729	-22.340873	-58.984252	-4.686355	17.144993	-23.315776	13.993901	-33.299508	-20.139383	-16.145938	33.939921	-7.076055	7.075948	-18.711141	-4.131658	-30.447818	9.948810	-2.227173	12.209364	-9.591186	1.637275	-11.761696	36.427595	-4.948445	2.841264	-3.173945	-9.565580	-39.944757
416	7.089787765293384	9.824536	-61.452893	-26.558572	10.544803	-51.095517	12.349808	-22.309664	-59.153446	-4.805366	17.221902	-23.612035	13.999281	-33.276202	-20.507906	-16.354755	33.990589	-7.348824	7.114043	-18.717183	-4.429051	-30.787354	9.948546	-2.232385	12.210920	-9.590967	1.643267	-11.763439	36.460394	-5.085680	2.867462	-3.193314	-9.773319	-40.327247
417	7.106830524344569	9.822691	-61.485411	-26.869051	10.543500	-51.130736	12.315462	-22.279313	-59.159092	-4.833623	17.238597	-23.623422	14.345642	-33.292055	-20.507772	-16.350993	34.037410	-7.339601	8.376969	-19.076420	-4.434688	-30.789978	9.936582	-2.235668	12.222738	-9.579220	1.646952	-11.775411	36.518200	-5.084842	4.258664	-3.774525	-9.794115	-40.331204
418	7.123873283395755	9.823989	-61.633863	-26.846323	10.741927	-51.181556	12.316513	-22.203024	-59.195875	-4.693730	17.279440	-23.693492	13.954824	-33.276935	-20.634369	-16.189586	34.011104	-7.581688	6.606443	-19.208291	-4.865540	-30.623087	9.938996	-2.245544	12.218793	-9.581662	1.658092	-11.772535	36.447465	-5.279598	2.179555	-3.971005	-10.279973	-40.200112
419	7.140916042446941	9.714408	-61.597904	-27.206257	10.819410	-51.127792	12.220477	-22.195102	-59.193539	-4.630360	17.280595	-23.577994	13.885859	-33.302102	-20.623865	-15.862241	34.002122	-7.573495	6.548234	-19.516710	-4.848436	-30.346316	9.941306	-2.246573	12.216285	-9.583425	1.659384	-11.770693	36.438396	-5.284959	2.117950	-4.434666	-10.267230	-40.025764
420	7.157958801498127	9.721696	-61.698472	-27.238101	10.957330	-51.142605	12.230136	-22.073133	-59.353851	-4.605980	17.418937	-23.627522	13.948082	-33.258065	-20.844507	-15.825950	34.078937	-7.690188	6.687264	-19.549501	-5.152536	-30.343339	9.939961	-2.246733	12.222544	-9.581857	1.659781	-11.778439	36.499642	-5.442065	2.270068	-4.496877	-10.609490	-40.024797
421	7.175001560549314	9.521585	-61.665852	-28.011938	10.994177	-51.015441	11.809716	-22.104431	-59.334342	-4.612390	17.421226	-23.284999	13.187141	-33.328162	-20.830756	-15.876222	34.084887	-7.536519	5.409405	-20.048217	-5.134775	-30.752500	9.946370	-2.253576	12.208986	-9.587800	1.666709	-11.763640	36.508228	-5.363594	0.745280	-5.176794	-10.586111	-40.634564
422	7.192044319600499	9.571346	-61.802281	-27.992759	11.275692	-51.065741	11.927015	-21.904954	-59.514800	-4.421326	17.616935	-23.441738	13.327470	-33.192899	-21.071382	-15.635341	34.171511	-7.836220	5.599786	-20.024671	-5.546514	-30.609275	9.946090	-2.248095	12.217103	-9.587263	1.661589	-11.773746	36.555190	-5.633950	0.948069	-5.138581	-10.977191	-40.522599
423	7.209087078651685	9.618965	-61.806066	-28.263197	11.764429	-51.066448	11.728208	-21.603865	-59.564551	-4.409075	18.259134	-23.437989	12.835379	-32.917292	-21.130215	-15.374938	34.176893	-7.873475	4.844454	-20.006332	-5.598050	-30.014536	9.945771	-2.248845	12.216748	-9.586149	1.662371	-11.774092	36.448432	-5.802697	0.207028	-5.171089	-11.011904	-39.969655
424	7.226129837702872	9.604655	-61.841732	-28.233098	11.833892	-51.062792	11.737833	-21.556919	-59.613962	-4.238346	18.270432	-23.430842	12.851813	-32.839173	-21.283220	-15.087256	34.179606	-7.891573	4.860484	-19.992642	-5.627273	-29.747548	9.947648	-2.247932	12.215886	-9.587060	1.661934	-11.773786	36.448720	-5.868073	0.229522	-5.146879	-10.985757	-39.742249
425	7.243172596754057	9.604744	-61.844787	-28.306789	11.864992	-51.058211	11.686518	-21.517021	-59.631180	-4.244404	18.483702	-23.426046	12.858519	-32.785902	-21.353483	-15.120248	34.469778	-7.813653	4.913589	-19.977963	-5.673220	-29.880386	9.943478	-2.246382	12.222416	-9.582009	1.660384	-11.781915	36.674218	-5.722332	0.297864	-5.116483	-10.984817	-39.920980
426	7.260215355805244	9.518891	-61.854977	-28.300293	11.993527	-50.921782	11.694335	-21.510407	-59.627678	-4.067475	19.032783	-23.299247	12.695008	-32.609799	-21.342531	-15.124994	34.879904	-7.607272	4.300557	-19.970815	-5.652908	-30.096012	9.946335	-2.241250	12.221353	-9.584424	1.655260	-11.780918	36.901555	-5.482403	-0.481673	-5.091184	-10.973864	-40.221456
